<svg xmlns="http://www.w3.org/2000/svg" version="1.1" width="1536" height="1024" viewBox="0 0 1536 1024"><g fill="currentColor"><path d="M 817.00 771.50 L 781.00 758.50 L 769.50 724.00 L 735.00 694.50 L 680.00 698.50 L 627.00 725.50 L 614.00 725.50 L 575.00 696.50 L 524.00 676.50 L 376.50 662.00 L 371.50 646.00 L 371.50 374.00 L 372.50 290.00 L 379.00 280.50 L 448.00 279.50 L 519.00 291.50 L 583.00 319.50 L 626.00 355.50 L 647.00 346.50 L 748.00 345.50 L 769.50 326.00 L 777.50 296.00 L 791.00 283.50 L 821.00 277.50 L 847.50 290.00 L 858.50 309.00 L 859.50 332.00 L 838.00 361.50 L 816.00 367.50 L 782.00 357.50 L 755.00 378.50 L 650.00 379.50 L 637.50 392.00 L 634.50 416.00 L 637.50 672.00 L 683.00 661.50 L 744.00 661.50 L 783.00 693.50 L 804.00 684.50 L 836.00 690.50 L 854.50 714.00 L 855.50 738.00 L 843.00 759.50 L 817.00 771.50 Z" /><path d="M 1057.00 699.50 L 1028.00 694.50 L 1007.00 670.50 L 883.00 670.50 L 835.00 630.50 L 684.00 629.50 L 675.50 610.00 L 677.50 442.00 L 689.00 435.50 L 834.00 435.50 L 878.00 396.50 L 1008.00 396.50 L 1034.00 371.50 L 1074.00 376.50 L 1089.50 397.00 L 1090.50 425.00 L 1080.00 442.50 L 1061.00 453.50 L 1027.00 449.50 L 1009.00 427.50 L 897.00 427.50 L 887.00 428.50 L 842.00 467.50 L 708.50 468.00 L 709.00 521.50 L 1084.00 521.50 L 1114.00 491.50 L 1154.00 496.50 L 1170.50 520.00 L 1170.50 545.00 L 1155.00 567.50 L 1135.00 575.50 L 1106.00 570.50 L 1088.00 550.50 L 708.50 552.00 L 709.00 598.50 L 848.00 599.50 L 890.00 638.50 L 1010.00 638.50 L 1031.00 617.50 L 1063.00 615.50 L 1085.50 633.00 L 1091.50 665.00 L 1081.50 686.00 L 1057.00 699.50 Z" /></g></svg>